<svg width="113" height="36" viewBox="0 0 113 36" fill="none" xmlns="http://www.w3.org/2000/svg">
                                <rect width="35.7268" height="35.7268" rx="7.58393" fill="#C6FF00"></rect>
                                <path d="M110.103 14.0696H113.002V27.4879H110.103V25.5556C109.084 26.978 107.5 27.8367 105.407 27.8367C101.757 27.8367 98.7246 24.7505 98.7246 20.7787C98.7246 16.7801 101.757 13.7207 105.407 13.7207C107.5 13.7207 109.084 14.5795 110.103 15.975V14.0696ZM105.863 25.0726C108.278 25.0726 110.103 23.2745 110.103 20.7787C110.103 18.2829 108.278 16.4849 105.863 16.4849C103.448 16.4849 101.623 18.2829 101.623 20.7787C101.623 23.2745 103.448 25.0726 105.863 25.0726Z" fill="white"></path>
                                <path d="M91.3012 13.7207C94.3337 13.7207 96.3733 15.814 96.3733 19.1685V27.4879H93.475V19.3564C93.475 17.4778 92.4552 16.4312 90.8718 16.4312C89.1543 16.4312 87.9466 17.5315 87.9466 19.9736V27.4879H85.0483V19.3564C85.0483 17.4778 84.109 16.4312 82.5256 16.4312C80.8886 16.4312 79.5468 17.5315 79.5468 19.9736V27.4879H76.6484V14.0696H79.5468V15.6798C80.4056 14.3648 81.7205 13.7207 83.3844 13.7207C85.1288 13.7207 86.4169 14.499 87.1952 15.8408C88.0808 14.4453 89.5031 13.7207 91.3012 13.7207Z" fill="white"></path>
                                <path d="M71.8341 12.057C70.8144 12.057 69.9824 11.1982 69.9824 10.2052C69.9824 9.18545 70.8144 8.35352 71.8341 8.35352C72.8539 8.35352 73.6859 9.18545 73.6859 10.2052C73.6859 11.1982 72.8539 12.057 71.8341 12.057ZM70.385 27.488V14.0697H73.2833V27.488H70.385Z" fill="white"></path>
                                <path d="M64.1211 27.4881V7.89746H67.0194V27.4881H64.1211Z" fill="white"></path>
                                <path d="M61.4884 17.7731V19.0613C61.4884 24.1871 57.785 27.8369 52.2835 27.8369C46.4331 27.8369 42.2734 23.4893 42.2734 18.0952C42.2734 12.701 46.4868 8.35352 52.1225 8.35352C55.6917 8.35352 58.7242 10.1516 60.3076 12.8084L57.6508 14.3381C56.6847 12.5937 54.5914 11.3592 52.1225 11.3592C48.1506 11.3592 45.3596 14.2844 45.3596 18.122C45.3596 21.906 48.097 24.8312 52.3103 24.8312C55.7186 24.8312 57.8118 23.0599 58.3754 20.5373H52.0956V17.7731H61.4884Z" fill="white"></path>
                                <path d="M12.9968 15.7929L7.69141 15.7897L7.69338 19.8093L12.8168 19.8123C13.3727 19.8121 13.8857 19.5159 14.1619 19.0357L17.0516 14.0292C17.3297 13.5479 17.3286 12.9558 17.0497 12.4728L14.4843 8.02932L11.0062 10.0374L13.6627 14.6386C13.9613 15.1513 13.5904 15.7914 12.9968 15.7929Z" fill="black"></path>
                                <path d="M22.0295 14.6304L24.6849 10.0374L21.2029 8.0293L18.6386 12.4648C18.3608 12.9463 18.3608 13.5387 18.6386 14.018L21.5295 19.0238C21.8073 19.5053 22.3206 19.8004 22.8784 19.8004H28.0092V15.7842H22.6961C22.1028 15.7865 21.734 15.1452 22.0295 14.6304Z" fill="black"></path>
                                <path d="M18.4029 23.0992L21.0529 27.6954L24.533 25.6839L21.9739 21.2454C21.6958 20.7641 21.1827 20.4679 20.6288 20.4688L14.8482 20.4695C14.2923 20.4693 13.7801 20.7663 13.5012 21.2493L10.9358 25.6928L14.4139 27.7009L17.0704 23.0996C17.3651 22.5847 18.1049 22.5859 18.4029 23.0992Z" fill="black"></path>
                            </svg>